<?xml version="1.0" encoding="utf-8" standalone="no"?>
<!DOCTYPE svg PUBLIC "-//W3C//DTD SVG 1.1//EN"
  "http://www.w3.org/Graphics/SVG/1.1/DTD/svg11.dtd">
<svg xmlns:xlink="http://www.w3.org/1999/xlink" width="280.512pt" height="280.512pt" viewBox="0 0 280.512 280.512" xmlns="http://www.w3.org/2000/svg" version="1.1">
 <metadata>
  <rdf:RDF xmlns:dc="http://purl.org/dc/elements/1.1/" xmlns:cc="http://creativecommons.org/ns#" xmlns:rdf="http://www.w3.org/1999/02/22-rdf-syntax-ns#">
   <cc:Work>
    <dc:type rdf:resource="http://purl.org/dc/dcmitype/StillImage"/>
    <dc:date>2023-03-20T12:41:11.960195</dc:date>
    <dc:format>image/svg+xml</dc:format>
    <dc:creator>
     <cc:Agent>
      <dc:title>Matplotlib v3.6.2, https://matplotlib.org/</dc:title>
     </cc:Agent>
    </dc:creator>
   </cc:Work>
  </rdf:RDF>
 </metadata>
 <defs>
  <style type="text/css">*{stroke-linejoin: round; stroke-linecap: butt}</style>
 </defs>
 <g id="figure_1">
  <g id="patch_1">
   <path d="M 0 280.512 
L 280.512 280.512 
L 280.512 0 
L 0 0 
L 0 280.512 
z
" style="fill: none"/>
  </g>
  <g id="axes_1">
   <g id="line2d_1">
    <path d="M 250.997429 145.79769 
L 250.997429 134.71431 
" clip-path="url(#p0c585c04ca)" style="fill: none; stroke: #800000; stroke-width: 3; stroke-linecap: square"/>
   </g>
   <g id="line2d_2">
    <path d="M 250.997429 134.71431 
L 250.997429 145.79769 
" clip-path="url(#p0c585c04ca)" style="fill: none; stroke: #ff6347; stroke-width: 3; stroke-linecap: square"/>
   </g>
   <g id="line2d_3">
    <path d="M 250.997429 145.79769 
L 214.643449 58.031418 
" clip-path="url(#p0c585c04ca)" style="fill: none; stroke: #800000; stroke-width: 3; stroke-linecap: square"/>
   </g>
   <g id="line2d_4">
    <path d="M 250.997429 134.71431 
L 222.480582 65.868551 
" clip-path="url(#p0c585c04ca)" style="fill: none; stroke: #ff6347; stroke-width: 3; stroke-linecap: square"/>
   </g>
   <g id="line2d_5">
    <path d="M 250.997429 145.79769 
L 134.71431 29.514571 
" clip-path="url(#p0c585c04ca)" style="fill: none; stroke: #800000; stroke-width: 3; stroke-linecap: square"/>
   </g>
   <g id="line2d_6">
    <path d="M 250.997429 134.71431 
L 145.79769 29.514571 
" clip-path="url(#p0c585c04ca)" style="fill: none; stroke: #ff6347; stroke-width: 3; stroke-linecap: square"/>
   </g>
   <g id="line2d_7">
    <path d="M 250.997429 145.79769 
L 58.031418 65.868551 
" clip-path="url(#p0c585c04ca)" style="fill: none; stroke: #800000; stroke-width: 3; stroke-linecap: square"/>
   </g>
   <g id="line2d_8">
    <path d="M 250.997429 134.71431 
L 65.868551 58.031418 
" clip-path="url(#p0c585c04ca)" style="fill: none; stroke: #ff6347; stroke-width: 3; stroke-linecap: square"/>
   </g>
   <g id="line2d_9">
    <path d="M 250.997429 145.79769 
L 29.514571 145.79769 
" clip-path="url(#p0c585c04ca)" style="fill: none; stroke: #800000; stroke-width: 3; stroke-linecap: square"/>
   </g>
   <g id="line2d_10">
    <path d="M 250.997429 134.71431 
L 29.514571 134.71431 
" clip-path="url(#p0c585c04ca)" style="fill: none; stroke: #ff6347; stroke-width: 3; stroke-linecap: square"/>
   </g>
   <g id="line2d_11">
    <path d="M 250.997429 145.79769 
L 65.868551 222.480582 
" clip-path="url(#p0c585c04ca)" style="fill: none; stroke: #800000; stroke-width: 3; stroke-linecap: square"/>
   </g>
   <g id="line2d_12">
    <path d="M 250.997429 134.71431 
L 58.031418 214.643449 
" clip-path="url(#p0c585c04ca)" style="fill: none; stroke: #ff6347; stroke-width: 3; stroke-linecap: square"/>
   </g>
   <g id="line2d_13">
    <path d="M 250.997429 145.79769 
L 145.79769 250.997429 
" clip-path="url(#p0c585c04ca)" style="fill: none; stroke: #800000; stroke-width: 3; stroke-linecap: square"/>
   </g>
   <g id="line2d_14">
    <path d="M 250.997429 134.71431 
L 134.71431 250.997429 
" clip-path="url(#p0c585c04ca)" style="fill: none; stroke: #ff6347; stroke-width: 3; stroke-linecap: square"/>
   </g>
   <g id="line2d_15">
    <path d="M 250.997429 145.79769 
L 222.480582 214.643449 
" clip-path="url(#p0c585c04ca)" style="fill: none; stroke: #800000; stroke-width: 3; stroke-linecap: square"/>
   </g>
   <g id="line2d_16">
    <path d="M 250.997429 134.71431 
L 214.643449 222.480582 
" clip-path="url(#p0c585c04ca)" style="fill: none; stroke: #ff6347; stroke-width: 3; stroke-linecap: square"/>
   </g>
   <g id="line2d_17">
    <path d="M 222.480582 65.868551 
L 214.643449 58.031418 
" clip-path="url(#p0c585c04ca)" style="fill: none; stroke: #800000; stroke-width: 3; stroke-linecap: square"/>
   </g>
   <g id="line2d_18">
    <path d="M 214.643449 58.031418 
L 222.480582 65.868551 
" clip-path="url(#p0c585c04ca)" style="fill: none; stroke: #ff6347; stroke-width: 3; stroke-linecap: square"/>
   </g>
   <g id="line2d_19">
    <path d="M 222.480582 65.868551 
L 134.71431 29.514571 
" clip-path="url(#p0c585c04ca)" style="fill: none; stroke: #800000; stroke-width: 3; stroke-linecap: square"/>
   </g>
   <g id="line2d_20">
    <path d="M 214.643449 58.031418 
L 145.79769 29.514571 
" clip-path="url(#p0c585c04ca)" style="fill: none; stroke: #ff6347; stroke-width: 3; stroke-linecap: square"/>
   </g>
   <g id="line2d_21">
    <path d="M 222.480582 65.868551 
L 58.031418 65.868551 
" clip-path="url(#p0c585c04ca)" style="fill: none; stroke: #800000; stroke-width: 3; stroke-linecap: square"/>
   </g>
   <g id="line2d_22">
    <path d="M 214.643449 58.031418 
L 65.868551 58.031418 
" clip-path="url(#p0c585c04ca)" style="fill: none; stroke: #ff6347; stroke-width: 3; stroke-linecap: square"/>
   </g>
   <g id="line2d_23">
    <path d="M 222.480582 65.868551 
L 29.514571 145.79769 
" clip-path="url(#p0c585c04ca)" style="fill: none; stroke: #800000; stroke-width: 3; stroke-linecap: square"/>
   </g>
   <g id="line2d_24">
    <path d="M 214.643449 58.031418 
L 29.514571 134.71431 
" clip-path="url(#p0c585c04ca)" style="fill: none; stroke: #ff6347; stroke-width: 3; stroke-linecap: square"/>
   </g>
   <g id="line2d_25">
    <path d="M 222.480582 65.868551 
L 65.868551 222.480582 
" clip-path="url(#p0c585c04ca)" style="fill: none; stroke: #800000; stroke-width: 3; stroke-linecap: square"/>
   </g>
   <g id="line2d_26">
    <path d="M 214.643449 58.031418 
L 58.031418 214.643449 
" clip-path="url(#p0c585c04ca)" style="fill: none; stroke: #ff6347; stroke-width: 3; stroke-linecap: square"/>
   </g>
   <g id="line2d_27">
    <path d="M 222.480582 65.868551 
L 145.79769 250.997429 
" clip-path="url(#p0c585c04ca)" style="fill: none; stroke: #800000; stroke-width: 3; stroke-linecap: square"/>
   </g>
   <g id="line2d_28">
    <path d="M 214.643449 58.031418 
L 134.71431 250.997429 
" clip-path="url(#p0c585c04ca)" style="fill: none; stroke: #ff6347; stroke-width: 3; stroke-linecap: square"/>
   </g>
   <g id="line2d_29">
    <path d="M 222.480582 65.868551 
L 222.480582 214.643449 
" clip-path="url(#p0c585c04ca)" style="fill: none; stroke: #800000; stroke-width: 3; stroke-linecap: square"/>
   </g>
   <g id="line2d_30">
    <path d="M 214.643449 58.031418 
L 214.643449 222.480582 
" clip-path="url(#p0c585c04ca)" style="fill: none; stroke: #ff6347; stroke-width: 3; stroke-linecap: square"/>
   </g>
   <g id="line2d_31">
    <path d="M 145.79769 29.514571 
L 134.71431 29.514571 
" clip-path="url(#p0c585c04ca)" style="fill: none; stroke: #800000; stroke-width: 3; stroke-linecap: square"/>
   </g>
   <g id="line2d_32">
    <path d="M 134.71431 29.514571 
L 145.79769 29.514571 
" clip-path="url(#p0c585c04ca)" style="fill: none; stroke: #ff6347; stroke-width: 3; stroke-linecap: square"/>
   </g>
   <g id="line2d_33">
    <path d="M 145.79769 29.514571 
L 58.031418 65.868551 
" clip-path="url(#p0c585c04ca)" style="fill: none; stroke: #800000; stroke-width: 3; stroke-linecap: square"/>
   </g>
   <g id="line2d_34">
    <path d="M 134.71431 29.514571 
L 65.868551 58.031418 
" clip-path="url(#p0c585c04ca)" style="fill: none; stroke: #ff6347; stroke-width: 3; stroke-linecap: square"/>
   </g>
   <g id="line2d_35">
    <path d="M 145.79769 29.514571 
L 29.514571 145.79769 
" clip-path="url(#p0c585c04ca)" style="fill: none; stroke: #800000; stroke-width: 3; stroke-linecap: square"/>
   </g>
   <g id="line2d_36">
    <path d="M 134.71431 29.514571 
L 29.514571 134.71431 
" clip-path="url(#p0c585c04ca)" style="fill: none; stroke: #ff6347; stroke-width: 3; stroke-linecap: square"/>
   </g>
   <g id="line2d_37">
    <path d="M 145.79769 29.514571 
L 65.868551 222.480582 
" clip-path="url(#p0c585c04ca)" style="fill: none; stroke: #800000; stroke-width: 3; stroke-linecap: square"/>
   </g>
   <g id="line2d_38">
    <path d="M 134.71431 29.514571 
L 58.031418 214.643449 
" clip-path="url(#p0c585c04ca)" style="fill: none; stroke: #ff6347; stroke-width: 3; stroke-linecap: square"/>
   </g>
   <g id="line2d_39">
    <path d="M 145.79769 29.514571 
L 145.79769 250.997429 
" clip-path="url(#p0c585c04ca)" style="fill: none; stroke: #800000; stroke-width: 3; stroke-linecap: square"/>
   </g>
   <g id="line2d_40">
    <path d="M 134.71431 29.514571 
L 134.71431 250.997429 
" clip-path="url(#p0c585c04ca)" style="fill: none; stroke: #ff6347; stroke-width: 3; stroke-linecap: square"/>
   </g>
   <g id="line2d_41">
    <path d="M 145.79769 29.514571 
L 222.480582 214.643449 
" clip-path="url(#p0c585c04ca)" style="fill: none; stroke: #800000; stroke-width: 3; stroke-linecap: square"/>
   </g>
   <g id="line2d_42">
    <path d="M 134.71431 29.514571 
L 214.643449 222.480582 
" clip-path="url(#p0c585c04ca)" style="fill: none; stroke: #ff6347; stroke-width: 3; stroke-linecap: square"/>
   </g>
   <g id="line2d_43">
    <path d="M 65.868551 58.031418 
L 58.031418 65.868551 
" clip-path="url(#p0c585c04ca)" style="fill: none; stroke: #800000; stroke-width: 3; stroke-linecap: square"/>
   </g>
   <g id="line2d_44">
    <path d="M 58.031418 65.868551 
L 65.868551 58.031418 
" clip-path="url(#p0c585c04ca)" style="fill: none; stroke: #ff6347; stroke-width: 3; stroke-linecap: square"/>
   </g>
   <g id="line2d_45">
    <path d="M 65.868551 58.031418 
L 29.514571 145.79769 
" clip-path="url(#p0c585c04ca)" style="fill: none; stroke: #800000; stroke-width: 3; stroke-linecap: square"/>
   </g>
   <g id="line2d_46">
    <path d="M 58.031418 65.868551 
L 29.514571 134.71431 
" clip-path="url(#p0c585c04ca)" style="fill: none; stroke: #ff6347; stroke-width: 3; stroke-linecap: square"/>
   </g>
   <g id="line2d_47">
    <path d="M 65.868551 58.031418 
L 65.868551 222.480582 
" clip-path="url(#p0c585c04ca)" style="fill: none; stroke: #800000; stroke-width: 3; stroke-linecap: square"/>
   </g>
   <g id="line2d_48">
    <path d="M 58.031418 65.868551 
L 58.031418 214.643449 
" clip-path="url(#p0c585c04ca)" style="fill: none; stroke: #ff6347; stroke-width: 3; stroke-linecap: square"/>
   </g>
   <g id="line2d_49">
    <path d="M 65.868551 58.031418 
L 145.79769 250.997429 
" clip-path="url(#p0c585c04ca)" style="fill: none; stroke: #800000; stroke-width: 3; stroke-linecap: square"/>
   </g>
   <g id="line2d_50">
    <path d="M 58.031418 65.868551 
L 134.71431 250.997429 
" clip-path="url(#p0c585c04ca)" style="fill: none; stroke: #ff6347; stroke-width: 3; stroke-linecap: square"/>
   </g>
   <g id="line2d_51">
    <path d="M 65.868551 58.031418 
L 222.480582 214.643449 
" clip-path="url(#p0c585c04ca)" style="fill: none; stroke: #800000; stroke-width: 3; stroke-linecap: square"/>
   </g>
   <g id="line2d_52">
    <path d="M 58.031418 65.868551 
L 214.643449 222.480582 
" clip-path="url(#p0c585c04ca)" style="fill: none; stroke: #ff6347; stroke-width: 3; stroke-linecap: square"/>
   </g>
   <g id="line2d_53">
    <path d="M 29.514571 134.71431 
L 29.514571 145.79769 
" clip-path="url(#p0c585c04ca)" style="fill: none; stroke: #800000; stroke-width: 3; stroke-linecap: square"/>
   </g>
   <g id="line2d_54">
    <path d="M 29.514571 145.79769 
L 29.514571 134.71431 
" clip-path="url(#p0c585c04ca)" style="fill: none; stroke: #ff6347; stroke-width: 3; stroke-linecap: square"/>
   </g>
   <g id="line2d_55">
    <path d="M 29.514571 134.71431 
L 65.868551 222.480582 
" clip-path="url(#p0c585c04ca)" style="fill: none; stroke: #800000; stroke-width: 3; stroke-linecap: square"/>
   </g>
   <g id="line2d_56">
    <path d="M 29.514571 145.79769 
L 58.031418 214.643449 
" clip-path="url(#p0c585c04ca)" style="fill: none; stroke: #ff6347; stroke-width: 3; stroke-linecap: square"/>
   </g>
   <g id="line2d_57">
    <path d="M 29.514571 134.71431 
L 145.79769 250.997429 
" clip-path="url(#p0c585c04ca)" style="fill: none; stroke: #800000; stroke-width: 3; stroke-linecap: square"/>
   </g>
   <g id="line2d_58">
    <path d="M 29.514571 145.79769 
L 134.71431 250.997429 
" clip-path="url(#p0c585c04ca)" style="fill: none; stroke: #ff6347; stroke-width: 3; stroke-linecap: square"/>
   </g>
   <g id="line2d_59">
    <path d="M 29.514571 134.71431 
L 222.480582 214.643449 
" clip-path="url(#p0c585c04ca)" style="fill: none; stroke: #800000; stroke-width: 3; stroke-linecap: square"/>
   </g>
   <g id="line2d_60">
    <path d="M 29.514571 145.79769 
L 214.643449 222.480582 
" clip-path="url(#p0c585c04ca)" style="fill: none; stroke: #ff6347; stroke-width: 3; stroke-linecap: square"/>
   </g>
   <g id="line2d_61">
    <path d="M 58.031418 214.643449 
L 65.868551 222.480582 
" clip-path="url(#p0c585c04ca)" style="fill: none; stroke: #800000; stroke-width: 3; stroke-linecap: square"/>
   </g>
   <g id="line2d_62">
    <path d="M 65.868551 222.480582 
L 58.031418 214.643449 
" clip-path="url(#p0c585c04ca)" style="fill: none; stroke: #ff6347; stroke-width: 3; stroke-linecap: square"/>
   </g>
   <g id="line2d_63">
    <path d="M 58.031418 214.643449 
L 145.79769 250.997429 
" clip-path="url(#p0c585c04ca)" style="fill: none; stroke: #800000; stroke-width: 3; stroke-linecap: square"/>
   </g>
   <g id="line2d_64">
    <path d="M 65.868551 222.480582 
L 134.71431 250.997429 
" clip-path="url(#p0c585c04ca)" style="fill: none; stroke: #ff6347; stroke-width: 3; stroke-linecap: square"/>
   </g>
   <g id="line2d_65">
    <path d="M 58.031418 214.643449 
L 222.480582 214.643449 
" clip-path="url(#p0c585c04ca)" style="fill: none; stroke: #800000; stroke-width: 3; stroke-linecap: square"/>
   </g>
   <g id="line2d_66">
    <path d="M 65.868551 222.480582 
L 214.643449 222.480582 
" clip-path="url(#p0c585c04ca)" style="fill: none; stroke: #ff6347; stroke-width: 3; stroke-linecap: square"/>
   </g>
   <g id="line2d_67">
    <path d="M 134.71431 250.997429 
L 145.79769 250.997429 
" clip-path="url(#p0c585c04ca)" style="fill: none; stroke: #800000; stroke-width: 3; stroke-linecap: square"/>
   </g>
   <g id="line2d_68">
    <path d="M 145.79769 250.997429 
L 134.71431 250.997429 
" clip-path="url(#p0c585c04ca)" style="fill: none; stroke: #ff6347; stroke-width: 3; stroke-linecap: square"/>
   </g>
   <g id="line2d_69">
    <path d="M 134.71431 250.997429 
L 222.480582 214.643449 
" clip-path="url(#p0c585c04ca)" style="fill: none; stroke: #800000; stroke-width: 3; stroke-linecap: square"/>
   </g>
   <g id="line2d_70">
    <path d="M 145.79769 250.997429 
L 214.643449 222.480582 
" clip-path="url(#p0c585c04ca)" style="fill: none; stroke: #ff6347; stroke-width: 3; stroke-linecap: square"/>
   </g>
   <g id="line2d_71">
    <path d="M 214.643449 222.480582 
L 222.480582 214.643449 
" clip-path="url(#p0c585c04ca)" style="fill: none; stroke: #800000; stroke-width: 3; stroke-linecap: square"/>
   </g>
   <g id="line2d_72">
    <path d="M 222.480582 214.643449 
L 214.643449 222.480582 
" clip-path="url(#p0c585c04ca)" style="fill: none; stroke: #ff6347; stroke-width: 3; stroke-linecap: square"/>
   </g>
   <g id="patch_2">
    <path d="M 251.136 151.344 
C 254.076572 151.344 256.897102 150.175698 258.9764 148.0964 
C 261.055698 146.017102 262.224 143.196572 262.224 140.256 
C 262.224 137.315428 261.055698 134.494898 258.9764 132.4156 
C 256.897102 130.336302 254.076572 129.168 251.136 129.168 
C 248.195428 129.168 245.374898 130.336302 243.2956 132.4156 
C 241.216302 134.494898 240.048 137.315428 240.048 140.256 
C 240.048 143.196572 241.216302 146.017102 243.2956 148.0964 
C 245.374898 150.175698 248.195428 151.344 251.136 151.344 
z
" clip-path="url(#p0c585c04ca)" style="fill: #ffffff; stroke: #ff0000; stroke-width: 3; stroke-linejoin: miter"/>
   </g>
   <g id="patch_3">
    <path d="M 218.66 72.94 
C 221.600572 72.94 224.421102 71.771698 226.5004 69.6924 
C 228.579698 67.613102 229.748 64.792572 229.748 61.852 
C 229.748 58.911428 228.579698 56.090898 226.5004 54.0116 
C 224.421102 51.932302 221.600572 50.764 218.66 50.764 
C 215.719428 50.764 212.898898 51.932302 210.8196 54.0116 
C 208.740302 56.090898 207.572 58.911428 207.572 61.852 
C 207.572 64.792572 208.740302 67.613102 210.8196 69.6924 
C 212.898898 71.771698 215.719428 72.94 218.66 72.94 
z
" clip-path="url(#p0c585c04ca)" style="fill: #ffffff; stroke: #ff0000; stroke-width: 3; stroke-linejoin: miter"/>
   </g>
   <g id="patch_4">
    <path d="M 140.256 40.464 
C 143.196572 40.464 146.017102 39.295698 148.0964 37.2164 
C 150.175698 35.137102 151.344 32.316572 151.344 29.376 
C 151.344 26.435428 150.175698 23.614898 148.0964 21.5356 
C 146.017102 19.456302 143.196572 18.288 140.256 18.288 
C 137.315428 18.288 134.494898 19.456302 132.4156 21.5356 
C 130.336302 23.614898 129.168 26.435428 129.168 29.376 
C 129.168 32.316572 130.336302 35.137102 132.4156 37.2164 
C 134.494898 39.295698 137.315428 40.464 140.256 40.464 
z
" clip-path="url(#p0c585c04ca)" style="fill: #ffffff; stroke: #ff0000; stroke-width: 3; stroke-linejoin: miter"/>
   </g>
   <g id="patch_5">
    <path d="M 61.852 72.94 
C 64.792572 72.94 67.613102 71.771698 69.6924 69.6924 
C 71.771698 67.613102 72.94 64.792572 72.94 61.852 
C 72.94 58.911428 71.771698 56.090898 69.6924 54.0116 
C 67.613102 51.932302 64.792572 50.764 61.852 50.764 
C 58.911428 50.764 56.090898 51.932302 54.0116 54.0116 
C 51.932302 56.090898 50.764 58.911428 50.764 61.852 
C 50.764 64.792572 51.932302 67.613102 54.0116 69.6924 
C 56.090898 71.771698 58.911428 72.94 61.852 72.94 
z
" clip-path="url(#p0c585c04ca)" style="fill: #ffffff; stroke: #ff0000; stroke-width: 3; stroke-linejoin: miter"/>
   </g>
   <g id="patch_6">
    <path d="M 29.376 151.344 
C 32.316572 151.344 35.137102 150.175698 37.2164 148.0964 
C 39.295698 146.017102 40.464 143.196572 40.464 140.256 
C 40.464 137.315428 39.295698 134.494898 37.2164 132.4156 
C 35.137102 130.336302 32.316572 129.168 29.376 129.168 
C 26.435428 129.168 23.614898 130.336302 21.5356 132.4156 
C 19.456302 134.494898 18.288 137.315428 18.288 140.256 
C 18.288 143.196572 19.456302 146.017102 21.5356 148.0964 
C 23.614898 150.175698 26.435428 151.344 29.376 151.344 
z
" clip-path="url(#p0c585c04ca)" style="fill: #ffffff; stroke: #ff0000; stroke-width: 3; stroke-linejoin: miter"/>
   </g>
   <g id="patch_7">
    <path d="M 61.852 229.748 
C 64.792572 229.748 67.613102 228.579698 69.6924 226.5004 
C 71.771698 224.421102 72.94 221.600572 72.94 218.66 
C 72.94 215.719428 71.771698 212.898898 69.6924 210.8196 
C 67.613102 208.740302 64.792572 207.572 61.852 207.572 
C 58.911428 207.572 56.090898 208.740302 54.0116 210.8196 
C 51.932302 212.898898 50.764 215.719428 50.764 218.66 
C 50.764 221.600572 51.932302 224.421102 54.0116 226.5004 
C 56.090898 228.579698 58.911428 229.748 61.852 229.748 
z
" clip-path="url(#p0c585c04ca)" style="fill: #ffffff; stroke: #ff0000; stroke-width: 3; stroke-linejoin: miter"/>
   </g>
   <g id="patch_8">
    <path d="M 140.256 262.224 
C 143.196572 262.224 146.017102 261.055698 148.0964 258.9764 
C 150.175698 256.897102 151.344 254.076572 151.344 251.136 
C 151.344 248.195428 150.175698 245.374898 148.0964 243.2956 
C 146.017102 241.216302 143.196572 240.048 140.256 240.048 
C 137.315428 240.048 134.494898 241.216302 132.4156 243.2956 
C 130.336302 245.374898 129.168 248.195428 129.168 251.136 
C 129.168 254.076572 130.336302 256.897102 132.4156 258.9764 
C 134.494898 261.055698 137.315428 262.224 140.256 262.224 
z
" clip-path="url(#p0c585c04ca)" style="fill: #ffffff; stroke: #ff0000; stroke-width: 3; stroke-linejoin: miter"/>
   </g>
   <g id="patch_9">
    <path d="M 218.66 229.748 
C 221.600572 229.748 224.421102 228.579698 226.5004 226.5004 
C 228.579698 224.421102 229.748 221.600572 229.748 218.66 
C 229.748 215.719428 228.579698 212.898898 226.5004 210.8196 
C 224.421102 208.740302 221.600572 207.572 218.66 207.572 
C 215.719428 207.572 212.898898 208.740302 210.8196 210.8196 
C 208.740302 212.898898 207.572 215.719428 207.572 218.66 
C 207.572 221.600572 208.740302 224.421102 210.8196 226.5004 
C 212.898898 228.579698 215.719428 229.748 218.66 229.748 
z
" clip-path="url(#p0c585c04ca)" style="fill: #ffffff; stroke: #ff0000; stroke-width: 3; stroke-linejoin: miter"/>
   </g>
  </g>
 </g>
 <defs>
  <clipPath id="p0c585c04ca">
   <rect x="7.2" y="7.2" width="266.112" height="266.112"/>
  </clipPath>
 </defs>
</svg>
